REM DIRINDEX 1\2,1\3
REM DIRNAME folder01,folder02,folder03
TITLE ""
FILE "2021-2040.mp3" MP3
  TRACK 01 AUDIO
    TITLE "0:"
    INDEX 01 00:00:00
  TRACK 02 AUDIO
    TITLE "2:cjc039_3041"
    INDEX 01 00:00:27
  TRACK 03 AUDIO
    TITLE "0:"
    INDEX 01 00:01:34
  TRACK 04 AUDIO
    TITLE "3:cjc039_3042"
    INDEX 01 00:02:12
  TRACK 05 AUDIO
    TITLE "0:"
    INDEX 01 00:05:59
  TRACK 06 AUDIO
    TITLE "2:cjc039_3043"
    INDEX 01 00:07:35
  TRACK 07 AUDIO
    TITLE "0:"
    INDEX 01 00:08:66
  TRACK 08 AUDIO
    TITLE "3:cjc039_3044"
    INDEX 01 00:09:42
  TRACK 09 AUDIO
    TITLE "0:"
    INDEX 01 00:14:04
  TRACK 10 AUDIO
    TITLE "2:cjc039_3045"
    INDEX 01 00:15:54
  TRACK 11 AUDIO
    TITLE "0:"
    INDEX 01 00:17:06
  TRACK 12 AUDIO
    TITLE "3:cjc039_3046"
    INDEX 01 00:17:53
  TRACK 13 AUDIO
    TITLE "0:"
    INDEX 01 00:22:27
  TRACK 14 AUDIO
    TITLE "2:cjc039_3047"
    INDEX 01 00:24:00
  TRACK 15 AUDIO
    TITLE "0:"
    INDEX 01 00:25:37
  TRACK 16 AUDIO
    TITLE "3:cjc039_3048"
    INDEX 01 00:26:13
  TRACK 17 AUDIO
    TITLE "0:"
    INDEX 01 00:30:01
  TRACK 18 AUDIO
    TITLE "2:cjc039_3049"
    INDEX 01 00:31:45
  TRACK 19 AUDIO
    TITLE "0:"
    INDEX 01 00:32:62
  TRACK 20 AUDIO
    TITLE "3:cjc039_3050"
    INDEX 01 00:33:40
  TRACK 21 AUDIO
    TITLE "0:"
    INDEX 01 00:37:20
  TRACK 22 AUDIO
    TITLE "2:cjc039_3051"
    INDEX 01 00:38:73
  TRACK 23 AUDIO
    TITLE "0:"
    INDEX 01 00:40:42
  TRACK 24 AUDIO
    TITLE "3:cjc039_3052"
    INDEX 01 00:41:16
  TRACK 25 AUDIO
    TITLE "0:"
    INDEX 01 00:45:10
  TRACK 26 AUDIO
    TITLE "2:cjc039_3053"
    INDEX 01 00:46:62
  TRACK 27 AUDIO
    TITLE "0:"
    INDEX 01 00:48:08
  TRACK 28 AUDIO
    TITLE "3:cjc039_3054"
    INDEX 01 00:48:57
  TRACK 29 AUDIO
    TITLE "0:"
    INDEX 01 00:52:24
  TRACK 30 AUDIO
    TITLE "2:cjc039_3055"
    INDEX 01 00:54:03
  TRACK 31 AUDIO
    TITLE "0:"
    INDEX 01 00:55:36
  TRACK 32 AUDIO
    TITLE "3:cjc039_3056"
    INDEX 01 00:56:12
  TRACK 33 AUDIO
    TITLE "0:"
    INDEX 01 00:59:24
  TRACK 34 AUDIO
    TITLE "2:cjc039_3057"
    INDEX 01 01:01:01
  TRACK 35 AUDIO
    TITLE "0:"
    INDEX 01 01:02:14
  TRACK 36 AUDIO
    TITLE "3:cjc039_3058"
    INDEX 01 01:02:63
  TRACK 37 AUDIO
    TITLE "0:"
    INDEX 01 01:06:59
  TRACK 38 AUDIO
    TITLE "2:cjc039_3059"
    INDEX 01 01:08:36
  TRACK 39 AUDIO
    TITLE "0:"
    INDEX 01 01:09:71
  TRACK 40 AUDIO
    TITLE "3:cjc039_3060"
    INDEX 01 01:10:49
  TRACK 41 AUDIO
    TITLE "0:"
    INDEX 01 01:15:19
  TRACK 42 AUDIO
    TITLE "2:cjc039_3061"
    INDEX 01 01:16:71
  TRACK 43 AUDIO
    TITLE "0:"
    INDEX 01 01:18:27
  TRACK 44 AUDIO
    TITLE "3:cjc039_3062"
    INDEX 01 01:19:03
  TRACK 45 AUDIO
    TITLE "0:"
    INDEX 01 01:23:36
  TRACK 46 AUDIO
    TITLE "2:cjc039_3063"
    INDEX 01 01:25:15
  TRACK 47 AUDIO
    TITLE "0:"
    INDEX 01 01:26:54
  TRACK 48 AUDIO
    TITLE "3:cjc039_3064"
    INDEX 01 01:27:30
  TRACK 49 AUDIO
    TITLE "0:"
    INDEX 01 01:31:47
  TRACK 50 AUDIO
    TITLE "2:cjc039_3065"
    INDEX 01 01:33:19
  TRACK 51 AUDIO
    TITLE "0:"
    INDEX 01 01:34:40
  TRACK 52 AUDIO
    TITLE "3:cjc039_3066"
    INDEX 01 01:35:20
  TRACK 53 AUDIO
    TITLE "0:"
    INDEX 01 01:39:45
  TRACK 54 AUDIO
    TITLE "2:cjc039_3067"
    INDEX 01 01:41:20
  TRACK 55 AUDIO
    TITLE "0:"
    INDEX 01 01:42:67
  TRACK 56 AUDIO
    TITLE "3:cjc039_3068"
    INDEX 01 01:43:45
  TRACK 57 AUDIO
    TITLE "0:"
    INDEX 01 01:47:48
  TRACK 58 AUDIO
    TITLE "2:cjc039_3069"
    INDEX 01 01:49:24
  TRACK 59 AUDIO
    TITLE "0:"
    INDEX 01 01:50:37
  TRACK 60 AUDIO
    TITLE "3:cjc039_3070"
    INDEX 01 01:51:13
  TRACK 61 AUDIO
    TITLE "0:"
    INDEX 01 01:54:56
  TRACK 62 AUDIO
    TITLE "2:cjc039_3071"
    INDEX 01 01:56:30
  TRACK 63 AUDIO
    TITLE "0:"
    INDEX 01 01:57:62
  TRACK 64 AUDIO
    TITLE "3:cjc039_3072"
    INDEX 01 01:58:40
  TRACK 65 AUDIO
    TITLE "0:"
    INDEX 01 02:02:40
  TRACK 66 AUDIO
    TITLE "2:cjc039_3073"
    INDEX 01 02:04:15
  TRACK 67 AUDIO
    TITLE "0:"
    INDEX 01 02:05:38
  TRACK 68 AUDIO
    TITLE "3:cjc039_3074"
    INDEX 01 02:06:10
  TRACK 69 AUDIO
    TITLE "0:"
    INDEX 01 02:09:69
  TRACK 70 AUDIO
    TITLE "2:cjc039_3075"
    INDEX 01 02:11:43
  TRACK 71 AUDIO
    TITLE "0:"
    INDEX 01 02:12:64
  TRACK 72 AUDIO
    TITLE "3:cjc039_3076"
    INDEX 01 02:13:44
  TRACK 73 AUDIO
    TITLE "0:"
    INDEX 01 02:17:53
  TRACK 74 AUDIO
    TITLE "2:cjc039_3077"
    INDEX 01 02:19:29
  TRACK 75 AUDIO
    TITLE "0:"
    INDEX 01 02:20:48
  TRACK 76 AUDIO
    TITLE "3:cjc039_3078"
    INDEX 01 02:21:24
  TRACK 77 AUDIO
    TITLE "0:"
    INDEX 01 02:24:65
  TRACK 78 AUDIO
    TITLE "2:cjc039_3079"
    INDEX 01 02:26:42
  TRACK 79 AUDIO
    TITLE "0:"
    INDEX 01 02:27:60
  TRACK 80 AUDIO
    TITLE "3:cjc039_3080"
    INDEX 01 02:28:43
  TRACK 81 AUDIO
    TITLE "0:"
    INDEX 01 02:33:13
